<svg class="svg" width="126" height="126" viewBox="0 0 126 126" fill="none" xmlns="http://www.w3.org/2000/svg">
		<g id="icon1">
		<circle cx="63" cy="63" r="61.5" fill="#EC0606" stroke="black" stroke-width="3"/>
		<circle cx="63" cy="63" r="20" fill="black"/>
		<circle cx="63" cy="63" r="20" stroke="black"/>
		<circle cx="62.5" cy="62.5" r="43.5" stroke="black" stroke-width="2"/>
		<path  d="M67.9443 19.6472C67.9443 22.6848 65.4819 25.1472 62.4443 25.1472C59.4067 25.1472 55 23 57.5 16.5C57.8543 16.1458 57.9575 15.9798 58.0543 15.8242C58.2307 15.5405 58.3856 15.2915 60 14C61.6922 13.1136 63.1911 12.3137 64.4728 11.6297C71.1444 8.06933 71.9351 7.64736 63.5 14.5C66.5376 14.5 67.9443 16.6096 67.9443 19.6472Z" fill="black"/>
		<path d="M67.9443 19.6472C67.9443 22.6848 65.4819 25.1472 62.4443 25.1472C59.4067 25.1472 55 23 57.5 16.5C57.8543 16.1458 57.9575 15.9798 58.0543 15.8242C58.2307 15.5405 58.3856 15.2915 60 14C61.6922 13.1136 63.1911 12.3137 64.4728 11.6297C71.1444 8.06933 71.9351 7.64736 63.5 14.5C66.5376 14.5 67.9443 16.6096 67.9443 19.6472Z" stroke="black"/>
		<path d="M97.7555 88.237C94.8255 87.4359 93.0997 84.4112 93.9007 81.4812C94.7018 78.5512 97.9352 74.8667 103.546 78.9924C103.794 79.4275 103.927 79.5709 104.051 79.7053C104.279 79.9503 104.478 80.1654 105.298 82.0632C105.707 83.9293 106.083 85.586 106.405 87.0028C108.08 94.3771 108.278 95.2511 103.893 85.3074C103.092 88.2375 100.686 89.0381 97.7555 88.237Z" fill="black"/>
		<path d="M97.7555 88.237C94.8255 87.4359 93.0997 84.4112 93.9007 81.4812C94.7018 78.5512 97.9352 74.8667 103.546 78.9924C103.794 79.4275 103.927 79.5709 104.051 79.7053C104.279 79.9503 104.478 80.1654 105.298 82.0632C105.707 83.9293 106.083 85.586 106.405 87.0028C108.08 94.3771 108.278 95.2511 103.893 85.3074C103.092 88.2375 100.686 89.0381 97.7555 88.237Z" stroke="black"/>
		<path d="M21.049 79.5663C22.6634 76.9932 26.058 76.2161 28.6311 77.8305C31.2041 79.4449 33.7958 83.6058 28.2235 87.7831C27.7352 87.8949 27.5595 87.9806 27.3948 88.061C27.0946 88.2074 26.831 88.3361 24.7771 88.5721C22.8726 88.4236 21.1779 88.3045 19.7285 88.2027C12.185 87.6729 11.291 87.6101 22.0781 86.2884C19.5051 84.674 19.4347 82.1393 21.049 79.5663Z" fill="black"/>
		<path  d="M21.049 79.5663C22.6634 76.9932 26.058 76.2161 28.6311 77.8305C31.2041 79.4449 33.7958 83.6058 28.2235 87.7831C27.7352 87.8949 27.5595 87.9806 27.3948 88.061C27.0946 88.2074 26.831 88.3361 24.7771 88.5721C22.8726 88.4236 21.1779 88.3045 19.7285 88.2027C12.185 87.6729 11.291 87.6101 22.0781 86.2884C19.5051 84.674 19.4347 82.1393 21.049 79.5663Z" stroke="black"/>
		</g>
		<g id="icon2">
		<circle cx="63" cy="63" r="61.5" fill="#070000" stroke="#050000" stroke-width="3"/>
		<path d="M82.1706 61.4772C82.1706 89.5506 73.5911 107.735 62.64 121.474C52.6524 110.477 43.2182 89.471 43.2182 61.4772C43.2182 33.5259 53.9825 13.6728 62.7281 4.40409C72.267 13.625 82.1706 33.4574 82.1706 61.4772Z" fill="#FF0000" stroke="#050000" stroke-width="2"/>
		<path d="M70.5885 45.0133C95.4066 58.135 107.472 74.2191 114.5 90.3224C100.109 94.0115 77.1295 92.5333 52.3818 79.4487C27.6718 66.3841 15.1522 47.5885 11.046 35.5247C23.6562 31.4018 45.818 31.9166 70.5885 45.0133Z" fill="#FF0000" stroke="#050000" stroke-width="2"/>
		<path d="M73.2367 78.6861C48.8554 92.6025 28.8096 94.1656 11.4483 91.4656C16.0486 77.3398 29.6152 58.7335 53.9274 44.8565C78.2026 31.0006 100.781 30.5078 113.166 33.5086C109.886 46.3639 97.5714 64.7963 73.2367 78.6861Z" fill="#FF0000" stroke="#050000" stroke-width="2"/>
		<circle cx="63.2182" cy="63" r="10" fill="black"/>
		<circle cx="63.2182" cy="63" r="10" stroke="black"/>
		<path d="M29.7182 63.5C37.2182 70.5 53.2182 83 63.7182 84.5" stroke="black" stroke-width="2"/>
		<path d="M93.8285 62.6062C86.5858 55.3403 71.047 42.2714 60.6079 40.3938" stroke="black" stroke-width="2"/>
		<path d="M47.3525 36C44.7182 47.5 38.7182 63 48.2182 89" stroke="black" stroke-width="2"/>
		<path d="M78.1208 90.2806C79.8881 78.2967 89.5507 61.0578 78.1208 35" stroke="black" stroke-width="2"/>
		</g>
		</svg>
        